<?xml version="1.0" encoding="iso-8859-1"?>
<!-- Generator: Adobe Illustrator 19.0.0, SVG Export Plug-In . SVG Version: 6.00 Build 0)  -->
<svg version="1.1" id="Capa_1" xmlns="http://www.w3.org/2000/svg" xmlns:xlink="http://www.w3.org/1999/xlink" x="0px" y="0px"
	 viewBox="0 0 512 512" style="enable-background:new 0 0 512 512;" xml:space="preserve">
<polygon style="fill:#FEA832;" points="327.289,244.66 263.669,308.28 244.371,313.582 198.989,268.201 200.049,244.66 
	263.669,181.039 "/>
<polygon style="fill:#FE9923;" points="327.289,244.66 263.669,308.28 244.371,313.582 219.559,288.77 295.479,212.85 "/>
<path style="fill:#787780;" d="M120.1,483.236c-25.236,31.174-72.102,33.507-100.307,5.301
	c-28.416-28.416-25.873-75.071,5.301-100.307l174.955-143.57l63.62,63.62L120.1,483.236z"/>
<path style="fill:#57555C;" d="M263.669,308.28L120.1,483.236c-25.236,31.174-72.102,33.507-100.307,5.301L231.86,276.47
	L263.669,308.28z"/>
<path style="fill:#D9D9D9;" d="M467.466,238.511l-63.621,63.62l-33.932,5.937c-9.119-10.815-10.393-27.357-6.786-38.596
	c1.273-5.088-0.212-10.391-4.03-14.208c-5.937-5.937-15.269-5.937-21.207,0c-5.938,5.938-15.268,5.938-21.207,0l-63.62-63.62
	c-2.969-2.969-4.454-6.574-4.242-10.602c-0.212-29.902-11.663-58.32-32.87-79.527c-0.212-0.212-0.212-0.212-0.212-0.212
	c-21.419-20.995-49.412-32.446-79.313-32.657c-12.512,0.636-20.571-15.482-10.604-25.449c52.592-52.592,138.268-52.592,190.86,0
	l106.034,106.033c5.938,5.938,5.937,15.269,0,21.206c-5.938,5.938-5.937,15.269,0,21.206c7.423,7.423,9.967,3.181,18.025,3.181
	c9.332-2.969,24.176-1.274,34.779,7.634L467.466,238.511z"/>
<path style="fill:#C8C6CD;" d="M467.466,238.511l-63.621,63.62l-33.932,5.937c-9.119-10.815-10.393-27.357-6.786-38.596
	c1.273-5.088-0.212-10.391-4.03-14.208c-5.937-5.937-15.269-5.937-21.207,0c-5.938,5.938-15.268,5.938-21.207,0l-31.81-31.81
	L390.91,117.42l31.81,31.81c5.938,5.938,5.937,15.269,0,21.206c-5.938,5.938-5.937,15.269,0,21.206
	c7.423,7.423,9.967,3.181,18.025,3.181c9.332-2.969,24.176-1.274,34.779,7.634L467.466,238.511z"/>
<path style="fill:#AEADB3;" d="M507.546,255.264l-84.827,84.827c-5.938,5.938-15.268,5.938-21.207,0l-29.265-29.265
	c-0.848-0.848-1.696-1.696-2.332-2.757l105.609-105.61c1.06,0.636,1.909,1.485,2.757,2.332l29.265,29.265
	C513.485,239.995,513.483,249.327,507.546,255.264z"/>
<g>
</g>
<g>
</g>
<g>
</g>
<g>
</g>
<g>
</g>
<g>
</g>
<g>
</g>
<g>
</g>
<g>
</g>
<g>
</g>
<g>
</g>
<g>
</g>
<g>
</g>
<g>
</g>
<g>
</g>
</svg>
